<svg width="197" height="53" viewBox="0 0 197 53" fill="none" xmlns="http://www.w3.org/2000/svg">
<g clip-path="url(#clip0_465_2220)">
<path d="M0 12.0635H7.05315L11.177 27.7628L19.8613 12.0635H22.7498L26.9218 27.7628L35.5875 12.0635H43.3619L27.1289 41.363H23.6005L19.5432 25.878L11.0402 41.363H7.58944L0 12.0635Z" fill="white"/>
<path d="M67.114 32.7889L73.5605 36.0682C72.1144 37.9312 70.2023 39.4057 67.813 40.4915C65.4274 41.5737 62.7792 42.1185 59.8722 42.1185C55.3193 42.1185 51.7317 40.8619 49.1057 38.3489C46.4834 35.8358 45.1704 32.4948 45.1704 28.333C45.1704 23.5756 46.8126 19.5482 50.0932 16.2543C53.3738 12.9605 57.3387 11.3118 61.9841 11.3118C64.7802 11.3118 67.273 11.9146 69.4588 13.1167C71.6447 14.3187 73.3682 16.0691 74.6294 18.3679C75.8906 20.6667 76.5231 23.1616 76.5231 25.8526C76.5231 26.6951 76.4306 27.6829 76.2494 28.816H52.4418C52.5157 30.8533 53.1963 32.4766 54.4871 33.6823C55.7742 34.8916 57.5532 35.4945 59.8204 35.4945C62.5647 35.4945 64.9947 34.5938 67.1177 32.7889H67.114ZM68.978 23.5357C68.4306 21.7417 67.5134 20.3798 66.2374 19.4574C64.9577 18.5313 63.4117 18.0701 61.6031 18.0701C59.7945 18.0701 58.193 18.5459 56.7506 19.4973C55.3045 20.4488 54.2097 21.7961 53.4589 23.5357H68.9817H68.978Z" fill="white"/>
<path d="M90.6701 12.0635V15.2956C92.0238 13.9665 93.4847 12.9714 95.0566 12.3068C96.6285 11.6422 98.3114 11.3118 100.101 11.3118C103.996 11.3118 107.306 12.7571 110.028 15.6479C112.754 18.5386 114.115 22.2465 114.115 26.7714C114.115 31.2963 112.706 34.7827 109.892 37.717C107.077 40.6513 103.741 42.1184 99.8795 42.1184C98.1597 42.1184 96.5619 41.817 95.0788 41.2178C93.5994 40.615 92.1274 39.6344 90.6627 38.269V52.0835H83.2286V12.0635H90.6627H90.6701ZM98.5407 18.0956C96.181 18.0956 94.2244 18.8872 92.6711 20.467C91.1177 22.0467 90.341 24.1131 90.341 26.6624C90.341 29.2118 91.1177 31.369 92.6711 32.9778C94.2244 34.5829 96.181 35.3891 98.5407 35.3891C100.9 35.3891 102.75 34.572 104.314 32.9378C105.879 31.3036 106.659 29.2227 106.659 26.6915C106.659 24.1603 105.89 22.1193 104.355 20.5106C102.82 18.9054 100.882 18.0992 98.5407 18.0992V18.0956Z" fill="white"/>
<path d="M123.24 -0.000244141C124.553 -0.000244141 125.677 0.468229 126.616 1.40154C127.556 2.33486 128.026 3.46791 128.026 4.79344C128.026 6.11896 127.56 7.22296 126.631 8.14539C125.703 9.07144 124.59 9.53265 123.295 9.53265C122.001 9.53265 120.828 9.06054 119.889 8.11996C118.949 7.17575 118.48 6.03181 118.48 4.68812C118.48 3.34444 118.946 2.29128 119.874 1.37612C120.806 0.460966 121.923 0.00338744 123.24 0.00338744V-0.000244141ZM119.497 12.0639H126.983V41.3634H119.497V12.0639Z" fill="white"/>
<path d="M133.784 12.0635H141.27V15.0668C142.968 13.6614 144.506 12.6845 145.886 12.1361C147.266 11.5878 148.675 11.3118 150.117 11.3118C153.076 11.3118 155.587 12.325 157.647 14.355C159.382 16.08 160.251 18.6294 160.251 22.0031V41.3667H152.847V28.5363C152.847 25.0391 152.688 22.7186 152.37 21.571C152.051 20.4234 151.493 19.5482 150.701 18.949C149.906 18.3498 148.93 18.0483 147.761 18.0483C146.248 18.0483 144.947 18.5459 143.863 19.5409C142.775 20.536 142.025 21.9123 141.603 23.67C141.385 24.5852 141.274 26.568 141.274 29.6149V41.3703H133.788V12.0635H133.784Z" fill="white"/>
<path d="M167.545 0.754883H175.031V24.1422L186.056 12.0636H195.458L182.605 26.1069L196.996 41.3632H187.702L175.031 27.861V41.3632H167.545V0.754883Z" fill="white"/>
</g>
<defs>
<clipPath id="clip0_465_2220">
<rect width="197" height="52.0805" fill="white"/>
</clipPath>
</defs>
</svg>
